<svg  viewBox="0 0 61 77" fill="none" xmlns="http://www.w3.org/2000/svg">
<path d="M14.5575 68.7977L15.6218 68.6162V76.7846L14.5575 76.9548V70.5902L9.76789 76.7506V76.7846L8.71486 76.9548V68.7977L9.76789 68.6162V76.4669L14.5575 70.2953V68.7977Z" fill="white"/>
<path d="M24.312 72.1785C27.0521 72.258 28.2636 75.2076 28.2636 76.7846L27.5503 76.9548C27.5503 75.7295 26.6898 72.4281 24.1081 72.3487L23.1231 73.1769V76.7846L22.0587 76.9548V73.1202L21.1416 72.3487C18.5599 72.4281 17.6994 75.7295 17.6994 76.9548L16.9861 76.7846C16.9861 75.2076 18.1863 72.258 20.9377 72.1785L16.8728 68.7524L16.9861 68.6162L22.0587 72.8933V68.7977L23.1231 68.6162V72.9387L28.2636 68.6162L28.3769 68.7524L24.312 72.1785Z" fill="white"/>
<path d="M33.1543 68.6162C35.4528 68.6162 37.4003 69.8642 37.4003 72.7004C37.4003 75.5367 35.4528 76.9548 33.1543 76.9548C30.8557 76.9548 28.9082 75.5367 28.9082 72.7004C28.9082 69.8642 30.8557 68.6162 33.1543 68.6162ZM33.5053 76.7846C35.634 76.7846 36.336 74.6517 36.336 72.7004C36.336 69.8642 34.3884 68.7977 32.8032 68.7977C30.6745 68.7977 29.9612 70.7491 29.9612 72.7004C29.9612 75.5367 31.9087 76.7846 33.5053 76.7846Z" fill="white"/>
<path d="M42.5492 68.6162C43.9305 68.6162 45.3799 69.3309 45.3799 70.7491C45.3799 72.1672 43.9645 72.8819 42.7303 72.8819H39.8883V76.7846L38.8352 76.9548V68.7977L39.8883 68.6162H42.5492ZM42.7303 72.7004C43.9645 72.7004 44.3155 71.6567 44.3155 70.7491C44.3268 70.2272 44.1117 69.7394 43.7494 69.365C43.387 69.0019 42.8888 68.7977 42.368 68.7977H39.8883V72.7004H42.7303Z" fill="white"/>
<path d="M51.5278 77.0002L50.2369 74.1526C48.7197 74.2206 47.3723 74.8219 45.8323 74.856L44.8812 77.0002L44.7227 76.9321L48.0743 69.3763L48.029 69.2629L48.1762 69.1494L48.9008 68.6162L52.3996 76.3535L51.5278 77.0002ZM45.9116 74.6744C47.3949 74.6291 48.697 74.0618 50.1577 73.9824L48.1762 69.5919L45.9116 74.6744Z" fill="white"/>
<path d="M32.7875 6.3431L32.6992 12.6862L31.3755 13.9548L30.0627 15.2235L30.0848 35.9627L30.1179 56.6909L30.6143 56.7902C31.7836 57.0108 31.9381 57.077 31.9381 57.3748C31.9381 57.6506 31.916 57.6506 31.4747 57.5844C31.0666 57.5183 24.2491 56.0511 23.0687 55.7753C22.7599 55.6981 22.5503 55.7091 22.2965 55.8304C22.109 55.9187 20.4874 56.5806 18.7003 57.3087C14.3097 59.1068 11.4195 60.3203 11.4636 60.3644C11.5739 60.4747 17.1448 58.9082 20.4212 57.8492C21.1493 57.6175 21.7891 57.419 21.8222 57.419C21.8663 57.419 21.8994 57.5293 21.8994 57.6727C21.8994 57.9044 21.6457 58.0036 18.1266 59.1178C16.0417 59.7687 14.0008 60.4195 13.5706 60.5519L12.7984 60.8056L12.7653 62.692L12.7433 64.5784L12.1586 64.6336C11.8497 64.6777 11.3092 64.7218 10.9782 64.7439C10.6473 64.766 11.2871 64.7549 12.4123 64.7218C15.1812 64.6556 17.6743 64.5233 16.6374 64.5012L15.8321 64.4791V62.6589C15.8321 61.291 15.8652 60.8167 15.9755 60.7946C17.553 60.3534 21.745 59.3274 21.8001 59.3605C21.8442 59.3826 21.8663 60.5299 21.8553 61.9088L21.8111 64.4019L22.5503 64.3247C22.9474 64.2916 24.0064 64.2585 24.911 64.2585H26.5326V61.9088C26.5326 60.6071 26.5547 59.526 26.5878 59.4929C26.6209 59.4598 27.007 59.4929 27.4482 59.5701C27.8895 59.6473 28.6948 59.7687 29.2354 59.8459C29.7869 59.9121 30.3606 60.0003 30.5371 60.0224L30.8349 60.0886L30.8129 62.0853C30.7798 63.7842 30.7577 64.093 30.6143 64.093C30.4929 64.093 30.4378 63.9386 30.3937 63.5415C30.3495 63.0781 30.3054 62.9899 30.0958 62.9568C29.8421 62.9237 29.7759 63.0561 29.7097 63.7511C29.6876 63.9276 29.6215 64.093 29.5442 64.1151C29.456 64.1482 29.4008 63.9496 29.3677 63.4642L29.3346 62.7693L29.3126 63.4532L29.2905 64.1372L28.8823 64.1813C28.6507 64.2033 29.5332 64.2144 30.8349 64.2144L33.2067 64.2033L33.2398 38.2462C33.2619 20.6179 33.2288 12.3111 33.1515 12.3553C33.0964 12.3884 33.0302 12.4104 33.0192 12.3884C33.0192 12.3663 32.975 9.57533 32.9419 6.17763L32.8757 -1.52588e-05L32.7875 6.3431ZM26.5326 57.5734C28.3197 57.8492 30.3164 58.1581 30.9783 58.2574L32.1587 58.4449V58.8089C32.1587 59.1399 32.1256 59.184 31.8608 59.184C31.4527 59.184 23.157 57.783 23.0026 57.6948C22.8812 57.6175 22.8481 57.1652 22.9584 57.0549C22.9915 57.0218 23.0798 57.0108 23.146 57.0439C23.2232 57.066 24.7455 57.3087 26.5326 57.5734ZM23.1901 62.0191C23.168 62.1956 23.146 62.0743 23.146 61.7764C23.146 61.4675 23.168 61.3352 23.1901 61.4675C23.2121 61.6109 23.2121 61.8536 23.1901 62.0191Z" fill="white"/>
<path d="M34.001 10.9771C33.9568 12.7642 33.9017 21.3577 33.8686 30.0616C33.8355 38.7654 33.7803 49.9955 33.7472 55.0148L33.67 64.1489H34.0782H34.4753L34.4863 61.1373C34.4974 59.4936 34.4863 47.8995 34.4753 35.3787C34.4643 22.869 34.4863 12.6318 34.5084 12.6318C34.5415 12.6318 35.3799 13.6356 36.3617 14.8601C37.3545 16.0957 38.6893 17.7173 39.3292 18.4785L40.4875 19.8574L40.5426 42.0859L40.5978 64.3144L42.9696 64.3916C44.2713 64.4247 45.7936 64.4798 46.3342 64.5019C46.8858 64.535 47.1946 64.535 47.0292 64.5129L46.7203 64.4688V63.3767V62.2846L46.3673 62.2294C46.0032 62.1632 41.6127 61.8323 41.2045 61.8323C41.0391 61.8323 40.9839 61.7551 40.9839 61.5124C40.9839 61.2035 41.006 61.1925 41.4031 61.2366C41.8775 61.2807 45.7716 61.5896 46.8306 61.6558L47.5476 61.7109L46.9961 61.6006C46.6982 61.5455 45.231 61.2697 43.7418 60.9939C42.2636 60.7181 41.006 60.4644 40.9618 60.4423C40.9177 60.4092 40.8736 51.1979 40.8736 39.9678V19.5596L39.4616 17.7394C38.6893 16.7465 37.6303 15.3786 37.1008 14.6947C36.5713 14.0107 35.7219 12.9076 35.2034 12.2457L34.2657 11.0322L34.1775 9.37748L34.0782 7.72276L34.001 10.9771ZM43.3005 63.1561C43.3005 63.8621 43.2674 64.0386 43.135 64.0386C43.0027 64.0386 42.9696 63.8841 42.9696 63.3326C42.9696 62.5824 43.0358 62.2735 43.2012 62.2735C43.2564 62.2735 43.3005 62.6707 43.3005 63.1561ZM45.2531 63.84C45.231 64.1048 45.209 63.8952 45.209 63.3767C45.209 62.8582 45.231 62.6486 45.2531 62.9023C45.2752 63.1671 45.2752 63.5863 45.2531 63.84Z" fill="white"/>
<path d="M37.3435 24.9866C37.3435 29.1455 37.3435 34.7716 37.3435 37.4964V42.4385L37.3435 42.4716C37.1339 42.3613 37.4258 42.3061 37.3435 42.3061C37.3707 42.3613 37.2883 42.4385 37.3435 42.5157C37.3876 42.5929 37.0126 42.3723 37.3435 42.5488V47.2261C37.3435 49.7965 37.2994 51.9035 37.2442 51.9035C37.1891 51.9035 37.5141 52.0469 37.2604 51.9587C36.9956 51.8704 37.3376 51.9918 37.3155 52.0138C36.9736 51.9035 37.2824 52.0359 37.3155 52.0138L37.3435 52.0579V58.1584V64.2588H38.6673H39.9911L39.9359 42.5157L39.8808 20.7616L39.4174 20.1659C38.6673 19.2061 37.7406 18.0037 37.5421 17.7058C37.3656 17.4411 37.3545 17.8382 37.3435 24.9866ZM38.3694 20.5189L38.7886 21.0153V42.5598V64.0933L38.3363 64.1264L37.8951 64.1595V42.0965C37.8951 29.9508 37.9061 20.0224 37.9282 20.0224C37.9392 20.0224 38.1488 20.2431 38.3694 20.5189Z" fill="white"/>
<path d="M24.9772 28.1199L24.911 29.9842L24.5911 30.2158C24.4146 30.3482 23.9402 30.7233 23.5431 31.0542C23.1349 31.3852 22.1311 32.2015 21.3037 32.8744L19.8034 34.0879V45.0863C19.8145 51.3632 19.8586 56.0958 19.9137 56.0958C20.3771 56.0958 20.355 56.6032 20.355 45.1304C20.355 34.6836 20.355 34.2975 20.5536 34.1431C22.12 32.8965 23.7748 31.6058 23.8189 31.6058C23.852 31.6058 23.8851 36.9451 23.8851 43.4647V55.3125L24.3043 55.4228C24.5249 55.478 24.8448 55.5662 25.0213 55.6104L25.3192 55.6766V43.3102C25.3192 36.5038 25.3523 30.9439 25.4074 30.9439C25.4516 30.9439 26.0252 31.4293 26.6871 32.014C27.349 32.6097 28.1322 33.2936 28.419 33.5363C28.9375 33.9666 28.9485 33.9886 28.9485 34.6064C28.9596 34.9594 28.9485 35.2462 28.9265 35.2462C28.9154 35.2462 28.6286 34.9925 28.3087 34.6946C27.9778 34.3858 27.5255 33.9886 27.2828 33.8011L26.8636 33.4591V33.9114C26.8636 34.1651 26.9187 34.3637 26.9739 34.3637C27.0401 34.3637 27.36 34.5733 27.6909 34.816C28.2425 35.2352 28.2977 35.3124 28.2977 35.7095C28.2977 35.9522 28.2646 36.1287 28.2205 36.1067C28.1653 36.0846 27.8675 35.8971 27.5586 35.6875C27.018 35.3345 26.9739 35.2683 26.9739 34.8711C26.9739 34.5402 26.9408 34.463 26.8526 34.5512C26.7202 34.6836 26.8195 35.9191 26.9518 35.886C26.996 35.875 27.3159 36.0515 27.6689 36.2721C28.2646 36.6582 28.2977 36.7134 28.2977 37.1326C28.2977 37.5518 28.2866 37.5628 28.055 37.4415C27.1945 36.9782 26.9739 36.7686 26.9739 36.3604C26.9629 36.0405 26.9408 35.9964 26.8526 36.1508C26.7864 36.2721 26.7753 36.6362 26.8305 37.0885C26.8746 37.4966 26.9298 37.7283 26.9518 37.5959C26.9849 37.3532 27.007 37.3643 27.6468 37.7614C28.2536 38.1365 28.2977 38.1916 28.2977 38.5777C28.2977 38.8094 28.2756 38.9969 28.2425 38.9969C28.0881 38.9969 26.9629 38.2909 26.8746 38.1475C26.8195 38.0482 26.7753 41.8541 26.7643 46.9617L26.7533 55.9523L27.8895 56.195C28.5183 56.3274 29.1361 56.4598 29.2685 56.5039L29.5111 56.5591V45.2077V33.8562L27.3048 31.7823L25.0985 29.6974L25.0765 27.9764L25.0434 26.2555L24.9772 28.1199ZM28.2977 40.0449C28.2977 40.2545 28.2756 40.431 28.2425 40.431C28.2205 40.431 27.9226 40.2986 27.5806 40.1332L26.9739 39.8353V39.3058V38.7873L27.6358 39.2286C28.2315 39.6257 28.2977 39.7029 28.2977 40.0449ZM27.6689 40.7068C28.2646 41.0157 28.2977 41.0598 28.2977 41.4459C28.2977 41.6776 28.2756 41.8651 28.2425 41.8651C28.2205 41.8651 27.9226 41.7327 27.5806 41.5673C27.0732 41.3135 26.9739 41.2253 26.9739 40.9716C26.9739 40.8061 26.9408 40.5855 26.8967 40.4751C26.8195 40.2545 26.8415 40.2655 27.6689 40.7068ZM28.2977 42.88C28.2977 43.1117 28.2536 43.2992 28.2094 43.2992C28.044 43.2992 26.9408 42.6925 26.9629 42.6042C26.9629 42.5601 26.9739 42.3505 26.9739 42.1409V41.7438L27.6358 42.1078C28.2646 42.4498 28.2977 42.4939 28.2977 42.88ZM27.6909 43.5971C28.2756 43.8839 28.2977 43.917 28.2977 44.3251C28.2977 44.7112 28.2756 44.7443 28.055 44.6782C27.9116 44.634 27.6027 44.4906 27.36 44.3582C26.9849 44.1597 26.9187 44.0604 26.8856 43.7074C26.8636 43.4757 26.8967 43.2992 26.9629 43.2992C27.0291 43.2992 27.349 43.4316 27.6909 43.5971ZM27.6689 45.0643C28.2425 45.318 28.2977 45.3731 28.2977 45.693C28.2977 45.8806 28.2646 46.0681 28.2205 46.0902C28.1653 46.1233 27.8564 46.035 27.5255 45.9026C26.9298 45.66 26.9187 45.6489 26.9077 45.1966C26.9077 44.9429 26.9408 44.7443 26.9739 44.7554C27.018 44.7774 27.3269 44.9098 27.6689 45.0643ZM28.2977 47.1933C28.2977 47.425 28.2536 47.6015 28.2094 47.5794C28.1653 47.5574 27.8675 47.4471 27.5475 47.3367C26.9849 47.1161 26.9739 47.1161 26.9739 46.6528V46.1784L27.6358 46.4763C28.2646 46.7631 28.2866 46.7852 28.2977 47.1933ZM27.724 47.8773C28.2756 48.0869 28.2977 48.1089 28.2977 48.5061C28.2977 48.7377 28.2646 48.9253 28.2205 48.9253C28.1763 48.9253 27.8785 48.815 27.5586 48.6826C26.996 48.4509 26.9739 48.4289 26.9739 48.0097C26.9739 47.778 27.007 47.6015 27.0622 47.6236C27.1063 47.6456 27.4041 47.7559 27.724 47.8773ZM28.1432 49.3665C28.2536 49.3665 28.2977 49.4989 28.2977 49.8188C28.2977 50.2049 28.2646 50.2601 28.0881 50.1939C27.9778 50.1608 27.6689 50.0726 27.4041 49.9953C26.9518 49.863 26.9187 49.8188 26.9187 49.4658C26.9077 49.2673 26.9298 49.0577 26.9408 49.0135C26.9629 48.9694 27.2056 49.0356 27.4813 49.1459C27.7571 49.2673 28.055 49.3665 28.1432 49.3665ZM27.6468 50.591C28.2866 50.8227 28.2977 50.8337 28.2977 51.2529C28.2977 51.4956 28.2866 51.6832 28.2756 51.6832C28.2536 51.6832 27.9447 51.5839 27.5806 51.4736C26.9187 51.264 26.9187 51.264 26.8856 50.8117C26.8636 50.569 26.8856 50.3594 26.9298 50.3594C26.9739 50.3594 27.2938 50.4697 27.6468 50.591Z" fill="white"/>
<path d="M21.4912 34.496L20.9065 34.9483V45.34V55.7427L21.4912 55.522L22.0648 55.3124V44.6781C22.0648 38.8203 22.0648 34.0327 22.0648 34.0327C22.0648 34.0327 21.8001 34.2423 21.4912 34.496Z" fill="white"/>
<path d="M20.0792 65.0975C14.4862 65.2299 0.652692 65.6601 0.0018334 65.7373C-0.351175 65.7704 50.3827 65.7263 57.0347 65.6932L61.0061 65.6601L57.8069 65.5167C49.8532 65.1526 47.8896 65.1195 35.0269 65.0975C27.5916 65.0754 20.8734 65.0864 20.0792 65.0975Z" fill="white"/>
</svg>
